<svg width="30" height="31" viewBox="0 0 30 31" fill="none" xmlns="http://www.w3.org/2000/svg">
<g filter="url(#filter0_d_110_78)">
<path d="M11.5154 13.3302V12.1265C11.5154 12.0552 11.5154 12.0267 11.6084 12.0267C12.4056 12.0267 13.0536 11.9795 13.3754 12.1692C13.6979 12.3582 13.7114 12.6192 13.7166 12.6972C13.7226 12.7752 13.7196 12.887 13.5696 13.1592C13.4196 13.4315 12.7484 13.4367 12.2639 13.4367H11.6226C11.5439 13.4367 11.5154 13.4082 11.5154 13.3302ZM13.7249 14.5917C13.799 14.6866 13.852 14.7963 13.8801 14.9134C13.9082 15.0304 13.9108 15.1522 13.8877 15.2704C13.8647 15.3886 13.8165 15.5004 13.7465 15.5984C13.6765 15.6964 13.5862 15.7781 13.4819 15.8382C13.3284 15.9026 13.1638 15.9365 12.9974 15.938H11.6151C11.5439 15.938 11.5154 15.938 11.5154 15.8457V14.4207C11.5154 14.3495 11.5154 14.321 11.6084 14.321H12.5271C13.0971 14.321 13.4534 14.2715 13.7249 14.5917Z" fill="white"/>
<path d="M18.7418 13.9318C18.7036 13.8416 18.6456 13.7612 18.5721 13.6966C18.4986 13.6319 18.4115 13.5846 18.3173 13.5583C18.1289 13.5069 17.9317 13.496 17.7389 13.5264C17.546 13.5568 17.3617 13.6277 17.1982 13.7345C17.0352 13.8989 16.9299 14.1119 16.8983 14.3412C16.8983 14.4215 16.8982 14.4365 16.9935 14.4365H18.771C18.8588 14.4365 18.8588 14.4365 18.8512 14.3263C18.8427 14.1885 18.8059 14.054 18.7418 13.9318ZM18.7418 13.9318C18.7036 13.8416 18.6449 13.7612 18.5714 13.6966C18.4979 13.6319 18.4115 13.5846 18.3173 13.5583C18.1289 13.5069 17.931 13.496 17.7381 13.5264C17.5452 13.5568 17.3617 13.6277 17.1982 13.7345C17.0352 13.8989 16.9292 14.1119 16.8975 14.3412C16.8975 14.4215 16.8975 14.4365 16.9928 14.4365H18.771C18.8588 14.4365 18.8588 14.4365 18.8512 14.3263C18.8427 14.1885 18.8044 14.054 18.7402 13.9318M19.575 6.875H10.8C10.0242 6.875 9.28026 7.18317 8.73171 7.73171C8.18317 8.28026 7.875 9.02424 7.875 9.8V18.575C7.875 19.3508 8.18317 20.0947 8.73171 20.6433C9.28026 21.1918 10.0242 21.5 10.8 21.5H19.575C20.3508 21.5 21.0947 21.1918 21.6433 20.6433C22.1918 20.0947 22.5 19.3508 22.5 18.575V9.8C22.5 9.02424 22.1918 8.28026 21.6433 7.73171C21.0947 7.18317 20.3508 6.875 19.575 6.875ZM16.7085 11.5325C16.7085 11.4748 16.7085 11.4522 16.7745 11.4522H19.1437V12.0673C19.1437 12.0673 19.146 12.1108 19.107 12.1108H16.8112C16.7085 12.1108 16.7085 12.1108 16.7085 12.0087V11.5325ZM14.5147 16.9078C13.6147 17.3975 12.102 17.2003 10.3103 17.2003V11.138H13.1693C13.9005 11.138 14.7705 11.321 15.0045 12.0958C15.126 12.4341 15.1186 12.8054 14.9837 13.1387C14.8488 13.472 14.5959 13.7439 14.2733 13.9025C14.5707 14.0126 14.8303 14.2055 15.0215 14.4585C15.2127 14.7116 15.3273 15.0141 15.352 15.3302C15.3766 15.6464 15.3101 15.963 15.1604 16.2426C15.0107 16.5222 14.784 16.753 14.5073 16.9078H14.5147ZM19.9628 15.182H17.0378C16.9575 15.182 16.884 15.2255 16.8983 15.3282C16.986 15.7595 17.1833 16.2132 17.6302 16.2792C17.8663 16.3491 18.1189 16.3381 18.348 16.248C18.5771 16.1579 18.7695 15.9939 18.8948 15.782C18.8948 15.782 18.9315 15.7378 18.9532 15.7378H19.9042C19.9042 15.7378 19.9628 15.7378 19.9478 15.7887C19.8482 16.0731 19.6997 16.3378 19.509 16.571C19.2548 16.8136 18.948 16.9945 18.6126 17.0994C18.2773 17.2044 17.9222 17.2307 17.575 17.1763C17.2278 17.1219 16.8978 16.9883 16.6105 16.7858C16.3233 16.5832 16.0866 16.3173 15.9188 16.0085C15.815 15.8027 15.7507 15.5794 15.729 15.35C15.5986 14.7737 15.6983 14.1692 16.0069 13.6653C16.3155 13.1615 16.8086 12.798 17.3813 12.6523C19.041 12.2938 20.094 13.4345 20.094 15.0433C20.0965 15.0621 20.0946 15.0812 20.0885 15.0991C20.0824 15.1171 20.0722 15.1334 20.0588 15.1468C20.0454 15.1602 20.0291 15.1704 20.0111 15.1765C19.9932 15.1826 19.9741 15.1845 19.9552 15.182H19.9628ZM18.3248 13.5583C18.1364 13.507 17.9393 13.4963 17.7465 13.5268C17.5538 13.5568 17.3813 13.5935 17.2057 13.7345C17.0302 13.8748 16.9373 14.1118 16.9058 14.3412C16.9058 14.4215 16.9058 14.4365 17.001 14.4365H18.771C18.8588 14.4365 18.8588 14.4365 18.8512 14.3263C18.8427 14.1885 18.8059 14.054 18.7418 13.9318C18.7036 13.8416 18.6456 13.7612 18.5721 13.6966C18.4986 13.6319 18.4115 13.5846 18.3173 13.5583H18.3248Z" fill="white"/>
</g>
<defs>
<filter id="filter0_d_110_78" x="-3.29175" y="0.5625" width="36.4375" height="36.4375" filterUnits="userSpaceOnUse" color-interpolation-filters="sRGB">
<feFlood flood-opacity="0" result="BackgroundImageFix"/>
<feColorMatrix in="SourceAlpha" type="matrix" values="0 0 0 0 0 0 0 0 0 0 0 0 0 0 0 0 0 0 127 0" result="hardAlpha"/>
<feOffset dy="4"/>
<feGaussianBlur stdDeviation="2"/>
<feComposite in2="hardAlpha" operator="out"/>
<feColorMatrix type="matrix" values="0 0 0 0 0 0 0 0 0 0 0 0 0 0 0 0 0 0 0.25 0"/>
<feBlend mode="normal" in2="BackgroundImageFix" result="effect1_dropShadow_110_78"/>
<feBlend mode="normal" in="SourceGraphic" in2="effect1_dropShadow_110_78" result="shape"/>
</filter>
</defs>
</svg>
