<?xml version="1.0" encoding="utf-8"?>
<!-- Generator: Adobe Illustrator 23.0.1, SVG Export Plug-In . SVG Version: 6.00 Build 0)  -->
<svg version="1.1" id="Layer_1" xmlns="http://www.w3.org/2000/svg" xmlns:xlink="http://www.w3.org/1999/xlink" x="0px" y="0px"
	 viewBox="0 0 1000 1000" style="enable-background:new 0 0 1000 1000;" xml:space="preserve">
<style type="text/css">
	.st0{fill:#010202;}
</style>
<g>
	<path class="st0" d="M226.9,322.9c52,0.1,104.1-0.4,156.1,0.6c16.9,0.3,34.3,2.4,50.4,7.1c32.9,9.8,55.8,31.5,60.8,66.5
		c5,35-6.8,64.2-37.3,84.3c-0.9,0.6-1.5,1.6-2.7,3c33.7,16.5,50.5,44.1,52.1,80.5c2.2,50.9-31.8,91.2-86.4,102.5
		c-15.5,3.2-31.5,4.4-47.4,4.6c-48.5,0.6-97.1,0.3-145.6,0.4C226.9,555.9,226.9,439.4,226.9,322.9z M297.3,462.7
		c21.8,0,42.7,0.2,63.5-0.1c10.8-0.1,21.8,0.2,32.4-1.7c20.1-3.6,33.3-17.6,33.5-33.3c0.1-15.6-13.1-30.7-34-32.1
		c-31.5-2.1-63.2-0.5-95.4-0.5C297.3,416.4,297.3,438.7,297.3,462.7z M297.2,602.4c30.1,0,59.1,0.2,88.1-0.2
		c5.6-0.1,11.4-2.1,16.8-4.1c15.2-5.5,24.7-16.8,24.3-29.4c-0.4-15.3-9.7-24.8-23-30.7c-3.8-1.7-8.1-3.4-12.2-3.5
		c-31.2-0.3-62.4-0.2-94-0.2C297.2,556.4,297.2,578.7,297.2,602.4z M786.2,555.9c-61.7,0-123.4,0-185,0c-6.2,34,26.6,67.9,63.4,63.9
		c12.8-1.4,25-8.9,37.5-13.6c3.1-1.2,6.1-3.5,9.2-3.5c22.1-0.3,44.2-0.2,68.9-0.2c-4.2,7.8-7.1,14.8-11.4,20.8
		c-23.6,32.8-57.6,46.5-96.3,48.5c-18,0.9-36.7-0.8-54.1-5.1c-49.9-12.4-80.8-51.1-85.8-105.2c-3-32.9-0.6-65.3,14.6-95.4
		c23-45.6,73.3-70.2,128.2-63c64,8.4,98.4,42.2,109,106.8c0.2,1.4,1.2,2.7,1.8,4.1C786.2,528,786.2,542,786.2,555.9z M715.8,508.9
		c-3.4-35.8-25.3-52.9-63.7-50.9c-29,1.6-50.3,23.2-49.5,50.9C640.1,508.9,677.6,508.9,715.8,508.9z M738.9,323.7
		c-54.4,0-108,0-161.6,0c0,15.6,0,30.5,0,45.3c54.3,0,107.7,0,161.6,0C738.9,353,738.9,338.4,738.9,323.7z"/>
	<path class="st0" d="M813.7,103H186.3c-45.8,0-83.3,37.5-83.3,83.3v627.4c0,45.8,37.5,83.3,83.3,83.3h627.4
		c45.8,0,83.3-37.5,83.3-83.3V186.3C897,140.5,859.5,103,813.7,103z M844.7,801.5c0,23.7-19.4,43.1-43.1,43.1H198.5
		c-23.7,0-43.1-19.4-43.1-43.1V198.5c0-23.7,19.4-43.1,43.1-43.1h603.1c23.7,0,43.1,19.4,43.1,43.1V801.5z"/>
</g>
</svg>
